<?xml version="1.0" standalone="no"?>
<!DOCTYPE svg PUBLIC "-//W3C//DTD SVG 20010904//EN"
 "http://www.w3.org/TR/2001/REC-SVG-20010904/DTD/svg10.dtd">
<svg version="1.0" xmlns="http://www.w3.org/2000/svg"
 width="1000.000000pt" height="1000.000000pt" viewBox="0 0 1000.000000 1000.000000"
 preserveAspectRatio="xMidYMid meet">
<metadata>
Created by potrace 1.14, written by Peter Selinger 2001-2017
</metadata>
<g transform="translate(0.000000,1000.000000) scale(0.100000,-0.100000)"
fill="#000000" stroke="none">
<path d="M4887 9584 c-1 -1 -54 -5 -117 -8 -63 -4 -133 -9 -155 -11 -127 -13
-152 -16 -175 -20 -72 -11 -108 -16 -137 -20 -18 -2 -40 -6 -50 -9 -10 -3 -36
-7 -58 -11 -22 -3 -56 -10 -75 -15 -19 -5 -48 -11 -65 -14 -16 -3 -66 -15
-110 -27 -44 -11 -91 -23 -104 -25 -14 -3 -28 -7 -33 -10 -4 -3 -16 -7 -25 -9
-35 -6 -329 -107 -393 -134 -36 -15 -101 -43 -145 -61 -44 -19 -83 -39 -87
-45 -4 -5 -8 -7 -8 -3 0 7 -219 -100 -230 -113 -3 -3 -20 -11 -37 -18 -18 -8
-33 -17 -33 -22 0 -5 -3 -8 -7 -7 -9 3 -166 -89 -236 -139 -26 -18 -49 -33
-52 -33 -3 0 -11 -4 -18 -10 -41 -34 -109 -80 -116 -80 -5 0 -11 -4 -13 -8 -1
-4 -41 -37 -88 -72 -47 -36 -87 -67 -90 -70 -3 -3 -32 -27 -65 -55 -33 -27
-75 -63 -94 -80 -63 -55 -336 -330 -371 -374 -19 -24 -44 -53 -56 -64 -28 -29
-130 -158 -184 -232 -24 -33 -47 -61 -52 -63 -4 -2 -8 -9 -8 -15 -1 -7 -14
-28 -30 -47 -17 -19 -30 -40 -30 -47 0 -7 -4 -13 -9 -13 -5 0 -13 -9 -16 -20
-3 -11 -12 -26 -18 -32 -7 -7 -39 -58 -71 -113 -33 -55 -67 -111 -76 -125 -52
-79 -232 -469 -289 -625 -6 -16 -16 -43 -22 -60 -7 -16 -13 -34 -15 -40 -1 -5
-9 -29 -18 -53 -8 -23 -15 -43 -15 -45 0 -1 -2 -9 -5 -17 -16 -49 -69 -239
-73 -260 -2 -14 -10 -50 -18 -80 -13 -55 -40 -186 -50 -247 -3 -18 -7 -45 -9
-60 -4 -25 -16 -113 -31 -228 -24 -193 -25 -778 -1 -915 2 -14 7 -54 11 -90 3
-36 7 -72 10 -80 2 -8 6 -35 9 -60 3 -25 8 -55 10 -66 2 -12 7 -39 10 -60 4
-22 8 -46 11 -54 2 -8 6 -26 9 -40 13 -70 37 -175 56 -241 12 -41 23 -81 25
-89 49 -175 47 -162 31 -220 -8 -30 -17 -67 -20 -82 -7 -42 -14 -47 -54 -42
-92 11 -322 26 -398 26 -45 0 -88 -23 -92 -50 -3 -17 21 -46 105 -128 376
-368 382 -374 483 -499 36 -44 73 -89 82 -99 10 -11 18 -23 18 -27 0 -3 13
-22 30 -40 16 -19 32 -42 36 -51 3 -10 9 -18 14 -18 4 0 21 -20 37 -45 15 -25
31 -45 36 -45 4 0 7 -5 7 -11 0 -5 13 -28 30 -50 75 -98 87 -117 100 -157 16
-51 32 -66 63 -59 29 8 118 66 135 89 7 10 17 18 21 18 9 0 38 -28 65 -61 18
-23 120 -142 141 -165 5 -6 44 -48 85 -94 113 -125 310 -319 401 -395 45 -37
134 -110 144 -118 6 -4 21 -17 35 -28 14 -11 70 -53 125 -92 55 -40 102 -75
103 -79 2 -5 8 -8 13 -8 6 0 43 -23 84 -50 41 -28 79 -50 85 -50 5 0 10 -4 10
-9 0 -5 8 -11 18 -15 22 -7 82 -42 96 -56 5 -5 18 -10 27 -10 10 0 19 -4 21
-9 3 -9 220 -120 329 -170 134 -60 484 -192 532 -200 4 0 8 -1 10 -2 1 0 9 -2
17 -4 8 -2 40 -11 70 -20 68 -20 166 -45 200 -50 14 -3 52 -11 85 -19 33 -8
76 -17 95 -21 57 -9 163 -26 200 -31 19 -2 51 -6 70 -9 163 -23 257 -28 530
-29 223 0 394 6 495 19 17 2 53 7 81 10 28 3 116 17 195 30 79 14 157 27 174
30 16 3 38 8 47 11 10 3 28 7 40 10 33 6 54 11 143 34 44 12 85 22 90 24 6 1
15 4 20 7 9 6 37 14 85 24 13 3 90 30 231 81 240 86 564 247 808 401 20 13 46
28 59 35 12 6 22 15 22 20 0 4 4 8 10 8 10 0 174 113 198 137 7 7 17 13 20 13
4 0 18 10 32 23 14 12 41 33 60 47 19 13 37 27 40 31 3 3 34 30 70 60 172 141
375 348 580 589 39 47 85 100 102 117 l29 33 26 -26 c39 -39 129 -94 153 -94
15 0 25 11 36 38 23 59 44 97 67 123 12 13 31 37 41 54 11 16 23 34 28 40 5 5
41 53 80 105 86 113 88 116 109 140 9 10 21 24 25 33 37 63 218 255 409 432
239 222 263 251 228 286 -12 12 -56 22 -98 22 -62 0 -311 -14 -345 -19 -77
-11 -70 -18 -101 96 l-27 105 20 65 c11 36 22 75 24 87 2 12 9 35 14 49 6 15
28 106 50 203 37 170 46 217 56 291 2 19 6 46 9 60 3 14 8 50 11 80 3 30 7 69
9 85 16 128 20 225 20 460 0 265 -5 352 -29 555 -12 103 -14 115 -36 240 -6
30 -12 66 -15 80 -3 14 -7 36 -10 50 -9 50 -14 67 -44 188 -17 68 -36 132 -41
143 -6 10 -9 19 -6 19 10 0 -122 371 -168 475 -8 17 -24 53 -36 80 -56 125
-202 408 -220 425 -3 3 -11 18 -18 33 -6 15 -17 33 -22 40 -6 7 -43 62 -82
122 -102 158 -253 356 -388 510 -19 22 -100 105 -180 185 -123 123 -183 179
-310 290 -10 8 -32 26 -51 40 -18 14 -40 32 -49 40 -9 8 -24 20 -32 25 -9 6
-76 53 -149 105 -74 52 -143 100 -154 107 -11 7 -69 42 -130 79 -136 83 -395
216 -535 273 -58 24 -119 49 -135 57 -29 12 -357 125 -362 124 -2 0 -4 0 -5 1
-2 0 -10 2 -19 4 -9 1 -43 11 -75 20 -33 9 -67 19 -77 21 -10 2 -26 5 -35 8
-9 3 -28 7 -42 10 -14 2 -47 9 -75 16 -27 6 -67 14 -88 17 -43 6 -51 7 -87 16
-27 7 -80 15 -145 22 -22 2 -62 7 -90 10 -88 12 -108 13 -230 21 -111 6 -423
12 -428 8z"/>
</g>
</svg>
